HIERARCHY
ROOT Hips
{
	OFFSET 0.000000 0.000000 0.000000
	CHANNELS 6 Xposition Yposition Zposition Zrotation Yrotation Xrotation 
	JOINT LHipJoint
	{
		OFFSET 0.000000 0.000000 0.000000
		CHANNELS 3 Zrotation Yrotation Xrotation
		JOINT LeftUpLeg
		{
			OFFSET 1.363060 -1.794630 0.839290
			CHANNELS 3 Zrotation Yrotation Xrotation
			JOINT LeftLeg
			{
				OFFSET 2.448110 -6.726130 0.000000
				CHANNELS 3 Zrotation Yrotation Xrotation
				JOINT LeftFoot
				{
					OFFSET 2.562200 -7.039590 0.000000
					CHANNELS 3 Zrotation Yrotation Xrotation
					JOINT LeftToeBase
					{
						OFFSET 0.157640 -0.433110 2.322550
						CHANNELS 3 Zrotation Yrotation Xrotation
						End Site
						{
							OFFSET 0.000000 0.000000 0.000000
						}
					}
				}
			}
		}
	}
	JOINT RHipJoint
	{
		OFFSET 0.000000 0.000000 0.000000
		CHANNELS 3 Zrotation Yrotation Xrotation
		JOINT RightUpLeg
		{
			OFFSET -1.305520 -1.794630 0.839290
			CHANNELS 3 Zrotation Yrotation Xrotation
			JOINT RightLeg
			{
				OFFSET -2.542530 -6.985550 0.000000
				CHANNELS 3 Zrotation Yrotation Xrotation
				JOINT RightFoot
				{
					OFFSET -2.568260 -7.056230 0.000000
					CHANNELS 3 Zrotation Yrotation Xrotation
					JOINT RightToeBase
					{
						OFFSET -0.164730 -0.452590 2.363150
						CHANNELS 3 Zrotation Yrotation Xrotation
						End Site
						{
							OFFSET 0.000000 0.000000 0.000000
						}
					}
				}
			}
		}
	}
}
MOTION
Frames: 19
Frame Time: 0.008333
2.388215 18.109782 0.424719 9.293607 83.314410 27.972769 -10.243388 1.321137 3.017086 -15.148693 1.432294 -34.984312 -3.086700 -0.497512 3.150576 -0.086747 1.001113 16.998065 0.937199 -0.000000 -53.154500 9.490324 -3.965341 -0.267585 8.889398 -7.010357 -2.653525 0.964926 -1.442024 17.052661 -0.408971 -1.308171 22.126166 -0.798499 0.000000 -65.764000
2.629562 18.075664 0.433364 10.461154 83.551044 28.885446 -10.236413 1.371271 2.947506 -15.823256 1.853736 -35.157532 -3.160343 -0.461342 3.476696 -0.125351 0.715514 17.094617 0.823200 0.000000 -52.938900 9.525186 -3.931231 -0.412323 8.650580 -7.542800 -2.945042 0.778546 -1.538153 19.362648 -0.691760 -3.599891 20.314045 -1.817900 -0.000000 -64.890800
2.867862 18.030562 0.441749 11.688991 83.812301 29.860217 -10.220930 1.409570 2.905175 -16.299059 1.978152 -35.253509 -3.171298 -0.406729 4.148980 -0.111707 0.828189 16.840559 0.867800 -0.000001 -52.066000 9.564498 -3.870360 -0.575741 8.422487 -8.009307 -3.284675 0.599815 -1.638196 21.804880 -1.001612 -5.888704 18.347390 -2.714100 0.000000 -63.507300
3.103289 17.974292 0.449819 12.908539 84.078663 30.834309 -10.197190 1.432709 2.896984 -16.556636 1.782966 -35.255504 -3.120062 -0.339785 5.122895 -0.046213 1.324001 16.215800 1.058200 0.000000 -50.563000 9.609465 -3.785977 -0.755883 8.200279 -8.408671 -3.687252 0.431921 -1.746247 24.377738 -1.324637 -8.067537 16.304974 -3.432400 0.000000 -61.716700
3.336101 17.906624 0.457462 14.019925 84.329907 31.714843 -10.164833 1.439010 2.923360 -16.607894 1.283383 -35.182131 -3.013878 -0.264119 6.390992 0.067602 2.132922 15.178461 1.346900 -0.000001 -48.447500 9.659064 -3.683144 -0.945160 7.983474 -8.728860 -4.169612 0.275998 -1.864982 27.078139 -1.644544 -10.056366 14.249302 -3.947500 0.000000 -59.631800
3.566640 17.827434 0.464685 15.007438 84.549189 32.497425 -10.121122 1.426482 2.987074 -16.481288 0.482383 -35.057752 -2.862169 -0.184674 7.937442 0.229035 3.196754 13.702545 1.681400 -0.000000 -45.815300 9.714251 -3.567311 -1.135099 7.763373 -8.962068 -4.758620 0.131659 -1.996450 29.908458 -1.944776 -11.792903 12.221508 -4.252700 0.000001 -57.397199
3.795293 17.736699 0.471546 15.861084 84.720986 33.184299 -10.063216 1.395609 3.084558 -16.231293 -0.578577 -34.936673 -2.679770 -0.102515 9.778113 0.434680 4.423909 11.760381 1.988900 -0.000000 -42.758500 9.776115 -3.444250 -1.312570 7.533809 -9.095994 -5.486122 -0.003019 -2.140821 32.873492 -2.211446 -13.239368 10.240927 -4.357699 -0.000000 -55.155400
4.022181 17.634479 0.478248 16.609319 84.835748 33.805703 -9.990343 1.348713 3.200605 -15.932639 -1.810126 -34.888486 -2.485478 -0.012439 11.971148 0.676463 5.688825 9.324895 2.182299 -0.000000 -39.317401 9.846509 -3.319730 -1.467517 7.284286 -9.136658 -6.374736 -0.129301 -2.297971 35.982734 -2.431897 -14.359859 8.289959 -4.271700 0.000000 -52.844800
4.247682 17.521283 0.484938 17.263674 84.885734 34.387560 -9.902704 1.287631 3.330059 -15.635458 -3.158021 -34.962983 -2.292989 0.086864 14.508868 0.952515 6.938214 6.433104 2.211200 -0.000000 -35.668300 9.926955 -3.197023 -1.584853 7.016306 -9.061679 -7.448023 -0.251786 -2.464631 39.219001 -2.604381 -15.178371 6.385074 -4.034000 -0.000000 -50.785300
4.471814 17.397932 0.491972 17.863799 84.867563 34.964633 -9.805074 1.216668 3.453068 -15.401357 -4.511116 -35.206010 -2.117899 0.203576 17.418240 1.252848 8.085795 3.129572 2.027401 -0.000000 -31.883600 10.019376 -3.079224 -1.657910 6.722381 -8.878932 -8.708504 -0.371791 -2.639102 42.572786 -2.725861 -15.695539 4.484100 -3.663000 0.000000 -48.747900
4.694612 17.265727 0.499489 18.338446 84.785363 35.466518 -9.705628 1.140636 3.557862 -15.255506 -5.785786 -35.639401 -1.968169 0.343188 20.670684 1.569733 9.099361 -0.492023 1.623800 0.000000 -28.108701 10.122342 -2.966671 -1.679993 6.416442 -8.580044 -10.149823 -0.493346 -2.817094 46.007474 -2.803060 -15.965355 2.595093 -3.202500 -0.000001 -46.918500
4.915906 17.126634 0.507844 18.702324 84.647510 35.899889 -9.612958 1.064438 3.632561 -15.214834 -6.909959 -36.248910 -1.847339 0.508989 24.202063 1.893459 9.971316 -4.303132 1.023300 -0.000000 -24.502400 10.235810 -2.858909 -1.652071 6.101650 -8.173715 -11.751262 -0.618008 -2.996369 49.483023 -2.842993 -16.032807 0.706996 -2.684200 0.000000 -45.207400
5.135480 16.983193 0.517408 19.000008 84.468212 36.299786 -9.534471 0.992500 3.670328 -15.281496 -7.838494 -36.992759 -1.753501 0.699733 27.909785 2.214425 10.718238 -8.154602 0.272800 -0.000000 -21.249500 10.359308 -2.754512 -1.579284 5.780908 -7.674580 -13.484812 -0.746718 -3.175470 52.949976 -2.854980 -15.952609 -1.174388 -2.140100 -0.000001 -43.588900
5.353023 16.838524 0.528619 19.319785 84.265059 36.740494 -9.474650 0.928309 3.667006 -15.451763 -8.549085 -37.804398 -1.681603 0.909572 31.666185 2.523007 11.364417 -11.897045 -0.570300 -0.000000 -18.520300 10.492096 -2.651157 -1.471456 5.452257 -7.105019 -15.313206 -0.879520 -3.354067 56.352455 -2.848759 -15.779776 -3.031925 -1.597800 -0.000000 -42.032500
5.568364 16.696030 0.541877 19.768058 84.056232 37.317857 -9.433583 0.874705 3.623675 -15.718512 -9.041570 -38.614033 -1.625546 1.128871 35.338808 2.810727 11.931614 -15.401625 -1.448800 0.000000 -16.434800 10.633645 -2.546419 -1.338120 5.111612 -6.490653 -17.206518 -1.015749 -3.532293 59.637522 -2.833072 -15.562566 -4.842249 -1.078100 -0.000000 -40.507400
5.781271 16.559371 0.557399 20.416179 83.858294 38.088466 -9.408520 0.834040 3.541664 -16.069908 -9.326528 -39.344706 -1.580277 1.346469 38.802107 3.070060 12.431520 -18.571490 -2.312400 -0.000001 -15.039300 10.782257 -2.437060 -1.190722 4.755928 -5.858253 -19.127558 -1.154345 -3.709889 62.750622 -2.815156 -15.341061 -6.574369 -0.595500 -0.000000 -38.995201
5.991821 16.432012 0.575193 21.296667 83.684697 39.074835 -9.394192 0.808479 3.425640 -16.488906 -9.426186 -39.931425 -1.542786 1.551149 41.949355 3.295502 12.866901 -21.346221 -3.120600 0.000000 -14.310600 10.935679 -2.319924 -1.038075 4.385983 -5.230419 -21.047630 -1.293655 -3.885604 65.644184 -2.800062 -15.142625 -8.198426 -0.158400 -0.000000 -37.479400
6.200194 16.317131 0.594968 22.383222 83.544742 40.241792 -9.385432 0.799961 3.281361 -16.951091 -9.366817 -40.319624 -1.512482 1.733334 44.696604 3.483359 13.233007 -23.700249 -3.843400 -0.000000 -14.168300 11.089939 -2.192187 -0.887206 4.009571 -4.623198 -22.939137 -1.431313 -4.056732 68.276231 -2.790564 -14.981671 -9.687804 0.229600 -0.000000 -35.952100
6.406925 16.217304 0.616280 23.643233 83.443629 41.552480 -9.377070 0.809648 3.116801 -17.430540 -9.182241 -40.467785 -1.490670 1.885193 46.981948 3.632637 13.524821 -25.636219 -4.462000 0.000000 -14.491600 11.240766 -2.051981 -0.742686 3.634658 -4.048050 -24.781455 -1.563774 -4.219972 70.612990 -2.786663 -14.856260 -11.024407 0.568400 0.000000 -34.411500
